<svg xmlns="http://www.w3.org/2000/svg" viewBox="0 0 34.21 34.31"><defs><style>.cls-1,.cls-3{fill:#ff6a00;}.cls-2{fill:none;stroke-width:2px;}.cls-2,.cls-3{stroke:#ff6a00;stroke-miterlimit:10;}.cls-3{stroke-width:0.25px;}</style></defs><g id="Capa_2" data-name="Capa 2"><g id="Layer_1" data-name="Layer 1"><path class="cls-1" d="M6.26,20.61,20.14,6.73H18.45L32.16,20.44a1.2,1.2,0,0,0,1.7-1.69L20.14,5a1.21,1.21,0,0,0-1.69,0L4.56,18.91a1.2,1.2,0,0,0,1.7,1.7Z"/><path class="cls-2" d="M7.61,17.56V33.31H30.85L31,17.56,20,6.6a1,1,0,0,0-1.43,0Z"/><line class="cls-2" x1="2.58" y1="7.87" x2="2.58" y2="31.07"/><path class="cls-3" d="M2,5.29a.83.83,0,0,1,1.21,0l.88,1.12.88,1.12c.26.34-.07.78-.61.78H.83c-.54,0-.88-.44-.61-.78L1.1,6.41Z"/><path class="cls-3" d="M2,33.51a.85.85,0,0,0,1.21,0l.88-1.12.88-1.13c.26-.34-.07-.77-.61-.77H.83c-.54,0-.88.43-.61.77l.88,1.13Z"/><line class="cls-2" x1="7.77" y1="2.58" x2="30.96" y2="2.58"/><path class="cls-3" d="M5.19,3.18A.83.83,0,0,1,5.19,2L6.31,1.1,7.43.22c.34-.27.77.07.77.61v3.5c0,.54-.43.87-.77.61L6.31,4.06Z"/><path class="cls-3" d="M33.4,3.18A.83.83,0,0,0,33.4,2L32.28,1.1,31.16.22c-.34-.27-.77.07-.77.61v3.5c0,.54.43.87.77.61l1.12-.88Z"/></g></g></svg>